<svg width="166" height="59" viewBox="0 0 166 59" fill="none" xmlns="http://www.w3.org/2000/svg">
<rect x="0.5" y="0.5" width="165" height="58" rx="2.5" fill="#44A5FF" fill-opacity="0.13"/>
<rect x="0.5" y="0.5" width="165" height="58" rx="2.5" stroke="#44A5FF" stroke-dasharray="10 10"/>
<path d="M29.2585 34V25.2727H32.7017C33.3636 25.2727 33.9276 25.3991 34.3935 25.652C34.8594 25.902 35.2145 26.25 35.4588 26.696C35.706 27.1392 35.8295 27.6506 35.8295 28.2301C35.8295 28.8097 35.7045 29.321 35.4545 29.7642C35.2045 30.2074 34.8423 30.5526 34.3679 30.7997C33.8963 31.0469 33.3253 31.1705 32.6548 31.1705H30.4602V29.6918H32.3565C32.7116 29.6918 33.0043 29.6307 33.2344 29.5085C33.4673 29.3835 33.6406 29.2116 33.7543 28.9929C33.8707 28.7713 33.929 28.517 33.929 28.2301C33.929 27.9403 33.8707 27.6875 33.7543 27.4716C33.6406 27.2528 33.4673 27.0838 33.2344 26.9645C33.0014 26.8423 32.706 26.7812 32.348 26.7812H31.1037V34H29.2585ZM38.8093 25.2727V34H36.994V25.2727H38.8093ZM42.13 34.1236C41.7124 34.1236 41.3402 34.0511 41.0135 33.9062C40.6868 33.7585 40.4283 33.5412 40.2379 33.2543C40.0504 32.9645 39.9567 32.6037 39.9567 32.1719C39.9567 31.8082 40.0234 31.5028 40.157 31.2557C40.2905 31.0085 40.4723 30.8097 40.7024 30.6591C40.9325 30.5085 41.1939 30.3949 41.4865 30.3182C41.782 30.2415 42.0916 30.1875 42.4155 30.1562C42.7962 30.1165 43.103 30.0795 43.3359 30.0455C43.5689 30.0085 43.7379 29.9545 43.843 29.8835C43.9482 29.8125 44.0007 29.7074 44.0007 29.5682V29.5426C44.0007 29.2727 43.9155 29.0639 43.745 28.9162C43.5774 28.7685 43.3388 28.6946 43.0291 28.6946C42.7024 28.6946 42.4425 28.767 42.2493 28.9119C42.0561 29.054 41.9283 29.233 41.8658 29.4489L40.1868 29.3125C40.272 28.9148 40.4396 28.571 40.6896 28.2812C40.9396 27.9886 41.2621 27.7642 41.657 27.608C42.0547 27.4489 42.5149 27.3693 43.0376 27.3693C43.4013 27.3693 43.7493 27.4119 44.0817 27.4972C44.4169 27.5824 44.7138 27.7145 44.9723 27.8935C45.2337 28.0724 45.4396 28.3026 45.5902 28.5838C45.7408 28.8622 45.8161 29.196 45.8161 29.5852V34H44.0945V33.0923H44.0433C43.9382 33.2969 43.7976 33.4773 43.6214 33.6335C43.4453 33.7869 43.2337 33.9077 42.9865 33.9957C42.7393 34.081 42.4538 34.1236 42.13 34.1236ZM42.6499 32.8707C42.9169 32.8707 43.1527 32.8182 43.3572 32.7131C43.5618 32.6051 43.7223 32.4602 43.8388 32.2784C43.9553 32.0966 44.0135 31.8906 44.0135 31.6605V30.9659C43.9567 31.0028 43.8786 31.0369 43.7791 31.0682C43.6825 31.0966 43.5732 31.1236 43.451 31.1491C43.3288 31.1719 43.2067 31.1932 43.0845 31.2131C42.9624 31.2301 42.8516 31.2457 42.7521 31.2599C42.5391 31.2912 42.353 31.3409 42.1939 31.4091C42.0348 31.4773 41.9112 31.5696 41.8232 31.6861C41.7351 31.7997 41.6911 31.9418 41.6911 32.1122C41.6911 32.3594 41.7805 32.5483 41.9595 32.679C42.1413 32.8068 42.3714 32.8707 42.6499 32.8707ZM50.1818 34.1278C49.5114 34.1278 48.9347 33.9858 48.4517 33.7017C47.9716 33.4148 47.6023 33.017 47.3438 32.5085C47.0881 32 46.9602 31.4148 46.9602 30.7528C46.9602 30.0824 47.0895 29.4943 47.348 28.9886C47.6094 28.4801 47.9801 28.0838 48.4602 27.7997C48.9403 27.5128 49.5114 27.3693 50.1733 27.3693C50.7443 27.3693 51.2443 27.473 51.6733 27.6804C52.1023 27.8878 52.4418 28.179 52.6918 28.554C52.9418 28.929 53.0795 29.3693 53.1051 29.875H51.392C51.3438 29.5483 51.2159 29.2855 51.0085 29.0866C50.804 28.8849 50.5355 28.7841 50.2031 28.7841C49.9219 28.7841 49.6761 28.8608 49.4659 29.0142C49.2585 29.1648 49.0966 29.3849 48.9801 29.6747C48.8636 29.9645 48.8054 30.3153 48.8054 30.7273C48.8054 31.1449 48.8622 31.5 48.9759 31.7926C49.0923 32.0852 49.2557 32.3082 49.4659 32.4616C49.6761 32.6151 49.9219 32.6918 50.2031 32.6918C50.4105 32.6918 50.5966 32.6491 50.7614 32.5639C50.929 32.4787 51.0668 32.3551 51.1747 32.1932C51.2855 32.0284 51.358 31.831 51.392 31.6009H53.1051C53.0767 32.1009 52.9403 32.5412 52.696 32.9219C52.4545 33.2997 52.1207 33.5952 51.6946 33.8082C51.2685 34.0213 50.7642 34.1278 50.1818 34.1278ZM57.2504 34.1278C56.5771 34.1278 55.9975 33.9915 55.5117 33.7188C55.0288 33.4432 54.6566 33.054 54.3952 32.5511C54.1339 32.0455 54.0032 31.4474 54.0032 30.7571C54.0032 30.0838 54.1339 29.4929 54.3952 28.9844C54.6566 28.4759 55.0245 28.0795 55.4989 27.7955C55.9762 27.5114 56.5359 27.3693 57.1779 27.3693C57.6097 27.3693 58.0117 27.4389 58.3839 27.5781C58.7589 27.7145 59.0856 27.9205 59.364 28.196C59.6452 28.4716 59.864 28.8182 60.0202 29.2358C60.1765 29.6506 60.2546 30.1364 60.2546 30.6932V31.1918H54.7276V30.0668H58.5458C58.5458 29.8054 58.489 29.5739 58.3754 29.3722C58.2617 29.1705 58.104 29.0128 57.9023 28.8991C57.7035 28.7827 57.4719 28.7244 57.2077 28.7244C56.9322 28.7244 56.6879 28.7884 56.4748 28.9162C56.2646 29.0412 56.0998 29.2102 55.9805 29.4233C55.8612 29.6335 55.8001 29.8679 55.7972 30.1264V31.196C55.7972 31.5199 55.8569 31.7997 55.9762 32.0355C56.0984 32.2713 56.2702 32.4531 56.4918 32.581C56.7134 32.7088 56.9762 32.7727 57.2802 32.7727C57.4819 32.7727 57.6665 32.7443 57.8342 32.6875C58.0018 32.6307 58.1452 32.5455 58.2646 32.4318C58.3839 32.3182 58.4748 32.179 58.5373 32.0142L60.2163 32.125C60.131 32.5284 59.9563 32.8807 59.6921 33.1818C59.4308 33.4801 59.0927 33.7131 58.6779 33.8807C58.266 34.0455 57.7901 34.1278 57.2504 34.1278ZM63.2546 30.2159V34H61.4393V25.2727H63.2035V28.6094H63.2802C63.4279 28.223 63.6665 27.9205 63.9961 27.7017C64.3256 27.4801 64.739 27.3693 65.2362 27.3693C65.6907 27.3693 66.087 27.4688 66.4251 27.6676C66.766 27.8636 67.0302 28.1463 67.2177 28.5156C67.408 28.8821 67.5018 29.321 67.4989 29.8324V34H65.6836V30.1562C65.6864 29.7528 65.5842 29.4389 65.3768 29.2145C65.1722 28.9901 64.8853 28.8778 64.516 28.8778C64.2688 28.8778 64.0501 28.9304 63.8597 29.0355C63.6722 29.1406 63.5245 29.294 63.4165 29.4957C63.3114 29.6946 63.2575 29.9347 63.2546 30.2159ZM71.8849 34.1278C71.223 34.1278 70.6506 33.9872 70.1676 33.706C69.6875 33.4219 69.3168 33.027 69.0554 32.5213C68.794 32.0128 68.6634 31.4233 68.6634 30.7528C68.6634 30.0767 68.794 29.4858 69.0554 28.9801C69.3168 28.4716 69.6875 28.0767 70.1676 27.7955C70.6506 27.5114 71.223 27.3693 71.8849 27.3693C72.5469 27.3693 73.1179 27.5114 73.598 27.7955C74.081 28.0767 74.4531 28.4716 74.7145 28.9801C74.9759 29.4858 75.1065 30.0767 75.1065 30.7528C75.1065 31.4233 74.9759 32.0128 74.7145 32.5213C74.4531 33.027 74.081 33.4219 73.598 33.706C73.1179 33.9872 72.5469 34.1278 71.8849 34.1278ZM71.8935 32.7216C72.1946 32.7216 72.446 32.6364 72.6477 32.4659C72.8494 32.2926 73.0014 32.0568 73.1037 31.7585C73.2088 31.4602 73.2614 31.1207 73.2614 30.7401C73.2614 30.3594 73.2088 30.0199 73.1037 29.7216C73.0014 29.4233 72.8494 29.1875 72.6477 29.0142C72.446 28.8409 72.1946 28.7543 71.8935 28.7543C71.5895 28.7543 71.3338 28.8409 71.1264 29.0142C70.9219 29.1875 70.767 29.4233 70.6619 29.7216C70.5597 30.0199 70.5085 30.3594 70.5085 30.7401C70.5085 31.1207 70.5597 31.4602 70.6619 31.7585C70.767 32.0568 70.9219 32.2926 71.1264 32.4659C71.3338 32.6364 71.5895 32.7216 71.8935 32.7216ZM78.1023 25.2727V34H76.2869V25.2727H78.1023ZM81.9684 34.1065C81.4712 34.1065 81.021 33.9787 80.6175 33.723C80.217 33.4645 79.8988 33.0852 79.663 32.5852C79.43 32.0824 79.3136 31.4659 79.3136 30.7358C79.3136 29.9858 79.4343 29.3622 79.6758 28.8651C79.9173 28.3651 80.2383 27.9915 80.6388 27.7443C81.0423 27.4943 81.484 27.3693 81.9641 27.3693C82.3306 27.3693 82.636 27.4318 82.8803 27.5568C83.1275 27.679 83.3263 27.8324 83.4769 28.017C83.6303 28.1989 83.7468 28.3778 83.8263 28.554H83.8817V25.2727H85.6928V34H83.9031V32.9517H83.8263C83.7411 33.1335 83.6204 33.3139 83.4641 33.4929C83.3107 33.669 83.1104 33.8153 82.8633 33.9318C82.619 34.0483 82.3207 34.1065 81.9684 34.1065ZM82.5437 32.6619C82.8363 32.6619 83.0835 32.5824 83.2852 32.4233C83.4897 32.2614 83.646 32.0355 83.7539 31.7457C83.8647 31.456 83.9201 31.1165 83.9201 30.7273C83.9201 30.3381 83.8661 30 83.7582 29.7131C83.6502 29.4261 83.494 29.2045 83.2894 29.0483C83.0849 28.892 82.8363 28.8139 82.5437 28.8139C82.2454 28.8139 81.994 28.8949 81.7894 29.0568C81.5849 29.2187 81.43 29.4432 81.3249 29.7301C81.2198 30.017 81.1673 30.3494 81.1673 30.7273C81.1673 31.108 81.2198 31.4446 81.3249 31.7372C81.4329 32.027 81.5877 32.2543 81.7894 32.419C81.994 32.581 82.2454 32.6619 82.5437 32.6619ZM90.1683 34.1278C89.495 34.1278 88.9155 33.9915 88.4297 33.7188C87.9467 33.4432 87.5746 33.054 87.3132 32.5511C87.0518 32.0455 86.9212 31.4474 86.9212 30.7571C86.9212 30.0838 87.0518 29.4929 87.3132 28.9844C87.5746 28.4759 87.9425 28.0795 88.4169 27.7955C88.8942 27.5114 89.4538 27.3693 90.0959 27.3693C90.5277 27.3693 90.9297 27.4389 91.3018 27.5781C91.6768 27.7145 92.0036 27.9205 92.282 28.196C92.5632 28.4716 92.782 28.8182 92.9382 29.2358C93.0945 29.6506 93.1726 30.1364 93.1726 30.6932V31.1918H87.6456V30.0668H91.4638C91.4638 29.8054 91.407 29.5739 91.2933 29.3722C91.1797 29.1705 91.022 29.0128 90.8203 28.8991C90.6214 28.7827 90.3899 28.7244 90.1257 28.7244C89.8501 28.7244 89.6058 28.7884 89.3928 28.9162C89.1825 29.0412 89.0178 29.2102 88.8984 29.4233C88.7791 29.6335 88.718 29.8679 88.7152 30.1264V31.196C88.7152 31.5199 88.7749 31.7997 88.8942 32.0355C89.0163 32.2713 89.1882 32.4531 89.4098 32.581C89.6314 32.7088 89.8942 32.7727 90.1982 32.7727C90.3999 32.7727 90.5845 32.7443 90.7521 32.6875C90.9197 32.6307 91.0632 32.5455 91.1825 32.4318C91.3018 32.3182 91.3928 32.179 91.4553 32.0142L93.1342 32.125C93.049 32.5284 92.8743 32.8807 92.6101 33.1818C92.3487 33.4801 92.0107 33.7131 91.5959 33.8807C91.1839 34.0455 90.7081 34.1278 90.1683 34.1278ZM94.3572 34V27.4545H96.1172V28.5966H96.1854C96.3047 28.1903 96.505 27.8835 96.7862 27.6761C97.0675 27.4659 97.3913 27.3608 97.7578 27.3608C97.8487 27.3608 97.9467 27.3665 98.0518 27.3778C98.157 27.3892 98.2493 27.4048 98.3288 27.4247V29.0355C98.2436 29.0099 98.1257 28.9872 97.9751 28.9673C97.8246 28.9474 97.6868 28.9375 97.5618 28.9375C97.2947 28.9375 97.0561 28.9957 96.8459 29.1122C96.6385 29.2259 96.4737 29.3849 96.3516 29.5895C96.2322 29.794 96.1726 30.0298 96.1726 30.2969V34H94.3572ZM102.045 34V27.4545H103.86V34H102.045ZM102.957 26.6108C102.687 26.6108 102.455 26.5213 102.262 26.3423C102.072 26.1605 101.977 25.9432 101.977 25.6903C101.977 25.4403 102.072 25.2259 102.262 25.0469C102.455 24.8651 102.687 24.7741 102.957 24.7741C103.227 24.7741 103.457 24.8651 103.647 25.0469C103.84 25.2259 103.937 25.4403 103.937 25.6903C103.937 25.9432 103.84 26.1605 103.647 26.3423C103.457 26.5213 103.227 26.6108 102.957 26.6108ZM105.314 34V27.4545H107.044V28.6094H107.121C107.257 28.2259 107.485 27.9233 107.803 27.7017C108.121 27.4801 108.502 27.3693 108.945 27.3693C109.394 27.3693 109.776 27.4815 110.091 27.706C110.407 27.9276 110.617 28.2287 110.722 28.6094H110.79C110.924 28.2344 111.165 27.9347 111.515 27.7102C111.867 27.483 112.283 27.3693 112.763 27.3693C113.374 27.3693 113.87 27.5639 114.25 27.9531C114.634 28.3395 114.826 28.8878 114.826 29.598V34H113.015V29.956C113.015 29.5923 112.918 29.3196 112.725 29.1378C112.532 28.956 112.29 28.8651 112 28.8651C111.671 28.8651 111.414 28.9702 111.229 29.1804C111.044 29.3878 110.952 29.6619 110.952 30.0028V34H109.192V29.9176C109.192 29.5966 109.1 29.3409 108.915 29.1506C108.733 28.9602 108.493 28.8651 108.195 28.8651C107.993 28.8651 107.811 28.9162 107.65 29.0185C107.49 29.1179 107.364 29.2585 107.27 29.4403C107.176 29.6193 107.13 29.8295 107.13 30.071V34H105.314ZM118.126 34.1236C117.708 34.1236 117.336 34.0511 117.01 33.9062C116.683 33.7585 116.424 33.5412 116.234 33.2543C116.047 32.9645 115.953 32.6037 115.953 32.1719C115.953 31.8082 116.02 31.5028 116.153 31.2557C116.287 31.0085 116.468 30.8097 116.699 30.6591C116.929 30.5085 117.19 30.3949 117.483 30.3182C117.778 30.2415 118.088 30.1875 118.412 30.1562C118.792 30.1165 119.099 30.0795 119.332 30.0455C119.565 30.0085 119.734 29.9545 119.839 29.8835C119.944 29.8125 119.997 29.7074 119.997 29.5682V29.5426C119.997 29.2727 119.912 29.0639 119.741 28.9162C119.574 28.7685 119.335 28.6946 119.025 28.6946C118.699 28.6946 118.439 28.767 118.245 28.9119C118.052 29.054 117.924 29.233 117.862 29.4489L116.183 29.3125C116.268 28.9148 116.436 28.571 116.686 28.2812C116.936 27.9886 117.258 27.7642 117.653 27.608C118.051 27.4489 118.511 27.3693 119.034 27.3693C119.397 27.3693 119.745 27.4119 120.078 27.4972C120.413 27.5824 120.71 27.7145 120.968 27.8935C121.23 28.0724 121.436 28.3026 121.586 28.5838C121.737 28.8622 121.812 29.196 121.812 29.5852V34H120.091V33.0923H120.039C119.934 33.2969 119.794 33.4773 119.618 33.6335C119.441 33.7869 119.23 33.9077 118.983 33.9957C118.735 34.081 118.45 34.1236 118.126 34.1236ZM118.646 32.8707C118.913 32.8707 119.149 32.8182 119.353 32.7131C119.558 32.6051 119.718 32.4602 119.835 32.2784C119.951 32.0966 120.01 31.8906 120.01 31.6605V30.9659C119.953 31.0028 119.875 31.0369 119.775 31.0682C119.679 31.0966 119.569 31.1236 119.447 31.1491C119.325 31.1719 119.203 31.1932 119.081 31.2131C118.958 31.2301 118.848 31.2457 118.748 31.2599C118.535 31.2912 118.349 31.3409 118.19 31.4091C118.031 31.4773 117.907 31.5696 117.819 31.6861C117.731 31.7997 117.687 31.9418 117.687 32.1122C117.687 32.3594 117.777 32.5483 117.956 32.679C118.137 32.8068 118.368 32.8707 118.646 32.8707ZM126.169 36.5909C125.581 36.5909 125.077 36.5099 124.657 36.348C124.239 36.1889 123.907 35.9716 123.659 35.696C123.412 35.4205 123.252 35.1108 123.178 34.767L124.857 34.5412C124.908 34.6719 124.989 34.794 125.1 34.9077C125.211 35.0213 125.357 35.1122 125.539 35.1804C125.723 35.2514 125.948 35.2869 126.212 35.2869C126.607 35.2869 126.932 35.1903 127.188 34.9972C127.446 34.8068 127.576 34.4872 127.576 34.0384V32.8409H127.499C127.419 33.0227 127.3 33.1946 127.141 33.3565C126.982 33.5185 126.777 33.6506 126.527 33.7528C126.277 33.8551 125.979 33.9062 125.632 33.9062C125.141 33.9062 124.694 33.7926 124.29 33.5653C123.89 33.3352 123.57 32.9844 123.331 32.5128C123.096 32.0384 122.978 31.4389 122.978 30.7145C122.978 29.973 123.098 29.3537 123.34 28.8565C123.581 28.3594 123.902 27.9872 124.303 27.7401C124.706 27.4929 125.148 27.3693 125.628 27.3693C125.995 27.3693 126.301 27.4318 126.549 27.5568C126.796 27.679 126.995 27.8324 127.145 28.017C127.299 28.1989 127.417 28.3778 127.499 28.554H127.567V27.4545H129.37V34.0639C129.37 34.6207 129.233 35.0866 128.961 35.4616C128.688 35.8366 128.31 36.1179 127.827 36.3054C127.347 36.4957 126.794 36.5909 126.169 36.5909ZM126.208 32.5426C126.5 32.5426 126.748 32.4702 126.949 32.3253C127.154 32.1776 127.31 31.9673 127.418 31.6946C127.529 31.419 127.584 31.0895 127.584 30.706C127.584 30.3224 127.53 29.9901 127.422 29.7088C127.314 29.4247 127.158 29.2045 126.953 29.0483C126.749 28.892 126.5 28.8139 126.208 28.8139C125.909 28.8139 125.658 28.8949 125.453 29.0568C125.249 29.2159 125.094 29.4375 124.989 29.7216C124.884 30.0057 124.831 30.3338 124.831 30.706C124.831 31.0838 124.884 31.4105 124.989 31.6861C125.097 31.9588 125.252 32.1705 125.453 32.321C125.658 32.4687 125.909 32.5426 126.208 32.5426ZM133.797 34.1278C133.124 34.1278 132.544 33.9915 132.059 33.7188C131.576 33.4432 131.203 33.054 130.942 32.5511C130.681 32.0455 130.55 31.4474 130.55 30.7571C130.55 30.0838 130.681 29.4929 130.942 28.9844C131.203 28.4759 131.571 28.0795 132.046 27.7955C132.523 27.5114 133.083 27.3693 133.725 27.3693C134.157 27.3693 134.559 27.4389 134.931 27.5781C135.306 27.7145 135.632 27.9205 135.911 28.196C136.192 28.4716 136.411 28.8182 136.567 29.2358C136.723 29.6506 136.801 30.1364 136.801 30.6932V31.1918H131.275V30.0668H135.093C135.093 29.8054 135.036 29.5739 134.922 29.3722C134.809 29.1705 134.651 29.0128 134.449 28.8991C134.25 28.7827 134.019 28.7244 133.755 28.7244C133.479 28.7244 133.235 28.7884 133.022 28.9162C132.811 29.0412 132.647 29.2102 132.527 29.4233C132.408 29.6335 132.347 29.8679 132.344 30.1264V31.196C132.344 31.5199 132.404 31.7997 132.523 32.0355C132.645 32.2713 132.817 32.4531 133.039 32.581C133.26 32.7088 133.523 32.7727 133.827 32.7727C134.029 32.7727 134.213 32.7443 134.381 32.6875C134.549 32.6307 134.692 32.5455 134.811 32.4318C134.931 32.3182 135.022 32.179 135.084 32.0142L136.763 32.125C136.678 32.5284 136.503 32.8807 136.239 33.1818C135.978 33.4801 135.64 33.7131 135.225 33.8807C134.813 34.0455 134.337 34.1278 133.797 34.1278Z" fill="#44A5FF"/>
</svg>
