<svg width="167" height="59" viewBox="0 0 167 59" fill="none" xmlns="http://www.w3.org/2000/svg">
<path d="M21.516 36.606L21.838 34.26C22.206 31.408 21.7 30.442 18.894 27.59C15.628 24.232 14.846 22.668 15.444 18.482L15.72 16.55C16.364 11.904 17.698 10.57 21.976 10.57H23.862C28.14 10.57 29.014 11.904 28.37 16.55L27.68 21.61H23.862L24.506 17.194C24.782 15.032 24.736 14.342 22.804 14.342H22.114C20.228 14.342 19.952 15.032 19.676 17.102L19.446 18.712C19.032 21.564 19.63 22.53 22.436 25.382C25.702 28.74 26.392 30.304 25.84 34.49L25.472 37.25C24.874 41.896 23.494 43.23 19.262 43.23H17.33C13.098 43.23 12.178 41.896 12.822 37.25L13.65 31.224H17.422L16.686 36.606C16.41 38.768 16.456 39.458 18.342 39.458H19.078C20.964 39.458 21.24 38.768 21.516 36.606ZM42.0816 22.714L39.9196 37.894C39.3216 42.034 38.1716 43.23 34.3996 43.23H32.1456C28.3276 43.23 27.4996 42.034 28.0976 37.894L30.2136 22.714C30.8116 18.574 31.9616 17.378 35.7796 17.378H38.0336C41.8056 17.378 42.6796 18.574 42.0816 22.714ZM33.8016 23.266L31.8236 37.342C31.5476 39.228 31.6396 39.872 33.2956 39.872H34.1236C35.7796 39.872 36.0556 39.228 36.3316 37.342L38.3096 23.266C38.5856 21.38 38.4476 20.736 36.7916 20.736H36.0096C34.3536 20.736 34.0776 21.38 33.8016 23.266ZM54.7 38.722C54.47 40.194 54.286 41.482 54.47 43H50.974C50.836 42.494 50.836 41.62 50.974 40.286C50.284 42.126 49.042 43.23 46.742 43.23H45.822C43.016 43.23 42.372 42.08 42.832 38.86L45.822 17.608H49.456L46.696 37.434C46.466 39.228 46.512 39.872 48.076 39.872H48.766C50.284 39.872 51.02 38.768 51.296 36.836L53.964 17.608H57.644L54.7 38.722ZM69.2877 43H65.6077L68.3677 23.174C68.5977 21.38 68.5517 20.736 66.9877 20.736H66.2517C64.7337 20.736 64.0897 21.84 63.8137 23.772L61.0997 43H57.4197L60.9617 17.608H64.4117L63.9977 20.598C64.6417 18.62 65.9297 17.378 68.3217 17.378H69.2417C72.0477 17.378 72.6917 18.528 72.2317 21.748L69.2877 43ZM81.3455 36.836L83.1855 23.772C83.4615 21.84 83.0475 20.736 81.5295 20.736H80.8395C79.2755 20.736 79.0455 21.38 78.7695 23.174L76.7455 37.434C76.4695 39.228 76.5615 39.872 78.1255 39.872H78.8615C80.3795 39.872 81.0695 38.768 81.3455 36.836ZM84.7495 38.722C84.5195 40.194 84.3815 41.482 84.5195 43H81.0235C80.8855 42.494 80.8855 41.62 81.0235 40.286C80.3335 42.126 79.0915 43.23 76.7915 43.23H75.8715C73.0655 43.23 72.4215 42.08 72.8815 38.86L75.3195 21.748C75.7795 18.528 76.6995 17.378 79.5055 17.378H80.4255C82.4495 17.378 83.4155 18.252 83.7375 19.724L84.9795 10.8H88.6595L84.7495 38.722ZM96.5805 36.606L96.9025 34.26C97.2705 31.408 96.7645 30.442 93.9585 27.59C90.6925 24.232 89.9105 22.668 90.5085 18.482L90.7845 16.55C91.4285 11.904 92.7625 10.57 97.0405 10.57H98.9265C103.204 10.57 104.078 11.904 103.434 16.55L102.744 21.61H98.9265L99.5705 17.194C99.8465 15.032 99.8005 14.342 97.8685 14.342H97.1785C95.2925 14.342 95.0165 15.032 94.7405 17.102L94.5105 18.712C94.0965 21.564 94.6945 22.53 97.5005 25.382C100.766 28.74 101.456 30.304 100.904 34.49L100.536 37.25C99.9385 41.896 98.5585 43.23 94.3265 43.23H92.3945C88.1625 43.23 87.2425 41.896 87.8865 37.25L88.7145 31.224H92.4865L91.7505 36.606C91.4745 38.768 91.5205 39.458 93.4065 39.458H94.1425C96.0285 39.458 96.3045 38.768 96.5805 36.606ZM112.086 34.49L109.786 43H104.772L104.818 17.608H108.544V26.716C108.544 31.316 108.222 35.594 107.992 38.814C108.636 35.594 109.602 31.316 110.936 26.762L113.604 17.608H117.33L117.468 26.762C117.514 31.316 117.238 35.594 117.008 38.814C117.652 35.594 118.526 31.316 119.814 26.716L122.344 17.608H125.702L118.71 43H113.972V34.49C113.972 31.776 114.064 28.142 114.248 25.612C113.788 28.142 112.822 31.776 112.086 34.49ZM132.777 36.836L133.743 29.936C133.237 30.304 132.501 30.58 131.673 30.902C129.281 31.822 128.913 32.65 128.591 34.904L128.223 37.434C127.947 39.228 128.039 39.872 129.603 39.872H130.293C131.811 39.872 132.501 38.768 132.777 36.836ZM129.787 28.464C133.835 26.9 134.249 26.578 134.663 23.588L134.709 23.266C134.985 21.38 134.847 20.736 133.191 20.736H132.455C130.799 20.736 130.477 21.38 130.247 23.266L129.879 26.164H126.429L126.889 22.714C127.441 18.574 128.637 17.378 132.409 17.378H134.433C138.205 17.378 139.079 18.574 138.481 22.714L136.227 38.722C135.997 40.194 135.813 41.482 135.951 43H132.501C132.363 42.494 132.317 41.62 132.455 40.332C131.765 42.126 130.523 43.23 128.269 43.23H127.349C124.543 43.23 123.945 42.08 124.359 38.86L124.911 34.72C125.325 31.454 126.199 29.844 129.787 28.464ZM149.811 23.174C150.041 21.38 149.995 20.736 148.431 20.736H147.695C146.177 20.736 145.533 21.84 145.257 23.772L143.417 36.836C143.141 38.768 143.509 39.872 145.027 39.872H145.717C147.281 39.872 147.511 39.228 147.787 37.434L149.811 23.174ZM141.715 48.842H138.081L142.405 17.608H145.855L145.441 20.598C146.085 18.62 147.373 17.378 149.765 17.378H150.685C153.491 17.378 154.135 18.528 153.675 21.748L151.283 38.86C150.823 42.08 149.857 43.23 147.051 43.23H146.131C144.107 43.23 143.141 42.402 142.819 40.93L141.715 48.842Z" fill="#44A5FF"/>
</svg>
